<?xml version="1.0" encoding="UTF-8" standalone="no"?>
<svg
   xmlns:dc="http://purl.org/dc/elements/1.1/"
   xmlns:cc="http://creativecommons.org/ns#"
   xmlns:rdf="http://www.w3.org/1999/02/22-rdf-syntax-ns#"
   xmlns:svg="http://www.w3.org/2000/svg"
   xmlns="http://www.w3.org/2000/svg"
   xmlns:sodipodi="http://sodipodi.sourceforge.net/DTD/sodipodi-0.dtd"
   xmlns:inkscape="http://www.inkscape.org/namespaces/inkscape"
   width="25mm"
   height="25mm"
   viewBox="0 0 25 25"
   version="1.1"
   id="svg8"
   sodipodi:docname="detail.svg"
   inkscape:version="1.0.1 (3bc2e813f5, 2020-09-07)">
  <defs
     id="defs2">
    <rect
       x="4.5376706"
       y="3.4572728"
       width="28.246506"
       height="26.868864"
       id="rect884" />
    <rect
       x="78.618599"
       y="25.866491"
       width="31.398911"
       height="29.651831"
       id="rect1005" />
  </defs>
  <sodipodi:namedview
     id="base"
     pagecolor="#ffffff"
     bordercolor="#666666"
     borderopacity="1.0"
     inkscape:pageopacity="0.0"
     inkscape:pageshadow="2"
     inkscape:zoom="4.8168147"
     inkscape:cx="42.97194"
     inkscape:cy="58.499721"
     inkscape:document-units="mm"
     inkscape:current-layer="layer14"
     inkscape:document-rotation="0"
     showgrid="false"
     inkscape:object-paths="false"
     inkscape:snap-midpoints="false"
     inkscape:object-nodes="true"
     inkscape:snap-object-midpoints="true"
     inkscape:window-width="1920"
     inkscape:window-height="1017"
     inkscape:window-x="-8"
     inkscape:window-y="-8"
     inkscape:window-maximized="1"
     inkscape:snap-global="true"
     inkscape:snap-intersection-paths="true"
     inkscape:snap-smooth-nodes="true"
     inkscape:snap-nodes="false" />
  <metadata
     id="metadata5">
    <rdf:RDF>
      <cc:Work
         rdf:about="">
        <dc:format>image/svg+xml</dc:format>
        <dc:type
           rdf:resource="http://purl.org/dc/dcmitype/StillImage" />
        <dc:title></dc:title>
      </cc:Work>
    </rdf:RDF>
  </metadata>
  <g
     inkscape:label="player"
     inkscape:groupmode="layer"
     id="layer1"
     style="display:none">
    <g
       id="g916">
      <path
         id="path835"
         style="fill:#b9bbbe;fill-opacity:1;stroke:#000000;stroke-width:0.332999;stroke-opacity:0"
         d="M 12.321839,1.5043 A 7.4842509,7.4842509 0 0 0 4.8788828,8.9885978 7.4842509,7.4842509 0 0 0 10.225845,16.160769 L 8.7453131,10.18956 7.0554935,8.542632 V 6.895704 h 3.3796395 l 1.928048,2.0928938 1.927531,-2.0928938 h 3.380156 v 1.646928 l -1.68982,1.646928 -1.481047,5.971728 A 7.4842509,7.4842509 0 0 0 19.847478,8.9885978 7.4842509,7.4842509 0 0 0 12.363181,1.5043 a 7.4842509,7.4842509 0 0 0 -0.04134,0 z" />
      <path
         id="path835-9"
         style="fill:#b9bbbe;fill-opacity:1;stroke:#000000;stroke-width:0.497435;stroke-opacity:0"
         d="m 18.499757,15.047143 a 8.6236237,8.6236237 0 0 1 -6.136577,2.565218 8.6236237,8.6236237 0 0 1 -6.0420088,-2.47065 11.179976,11.179976 0 0 0 -5.063255,8.770524 H 12.43811 23.617791 a 11.179976,11.179976 0 0 0 -5.118034,-8.865092 z" />
    </g>
  </g>
  <g
     inkscape:groupmode="layer"
     id="layer2"
     inkscape:label="monster"
     style="display:none">
    <g
       id="g878"
       transform="translate(-24.824213,-31.005342)">
      <g
         id="g897"
         transform="matrix(1,0,0,0.81658267,-30.035873,13.167336)">
        <path
           style="fill:#b9bbbe;fill-opacity:1;stroke:#b9bbbe;stroke-width:0.264583px;stroke-linecap:butt;stroke-linejoin:miter;stroke-opacity:1"
           d="m 63.087747,27.930329 c -3.120452,-0.927902 -4.416276,-3.803905 -4.416276,-3.803905 -0.523119,3.738954 1.624434,8.090923 1.624434,8.090923 z"
           id="path861" />
        <path
           style="fill:#b9bbbe;fill-opacity:1;stroke:#b9bbbe;stroke-width:0.264583px;stroke-linecap:butt;stroke-linejoin:miter;stroke-opacity:1"
           d="m 71.506698,27.864955 c 3.120452,-0.927902 4.416276,-3.803905 4.416276,-3.803905 0.523119,3.738954 -1.624434,8.090923 -1.624434,8.090923 z"
           id="path861-8" />
      </g>
      <path
         id="path859"
         style="fill:#b9bbbe;fill-opacity:1;stroke:#000000;stroke-width:0.497435;stroke-opacity:0"
         d="m 43.323971,46.052485 a 8.6236238,8.6236238 0 0 1 -6.136576,2.565218 8.6236238,8.6236238 0 0 1 -6.04201,-2.47065 11.179976,11.179976 0 0 0 -5.063256,8.770525 h 11.180196 11.17968 a 11.179976,11.179976 0 0 0 -5.118034,-8.865093 z" />
      <path
         id="path992"
         style="fill:#b9bbbe;fill-opacity:1;stroke:#000000;stroke-width:0.332999;stroke-opacity:0"
         d="m 37.146036,32.509667 a 7.484251,7.484251 0 0 0 -7.442958,7.484298 7.484251,7.484251 0 0 0 5.346963,7.172172 l -1.480532,-5.97121 -1.68982,-1.646928 v -1.646928 h 3.379639 l 1.928049,2.092894 1.927532,-2.092894 h 3.380155 v 1.646928 l -1.689819,1.646928 -1.481048,5.971728 a 7.484251,7.484251 0 0 0 5.347478,-7.17269 7.484251,7.484251 0 0 0 -7.484298,-7.484298 7.484251,7.484251 0 0 0 -0.04134,0 z" />
    </g>
  </g>
  <g
     inkscape:label="players"
     inkscape:groupmode="layer"
     id="g890"
     style="display:none">
    <g
       id="g924"
       transform="matrix(0.96867553,0,0,0.96867553,-0.20477457,-0.69398666)">
      <path
         id="path884"
         style="fill:#b9bbbe;fill-opacity:1;stroke:#000000;stroke-width:0.28661;stroke-opacity:0"
         d="m 10.14609,3.9965209 a 6.4416429,6.4416429 0 0 0 -6.4061006,6.4416831 6.4416429,6.4416429 0 0 0 4.6020933,6.173038 l -1.2742835,-5.139378 -1.454416,-1.4175 V 8.6368649 h 2.9088323 l 1.6594575,1.8013391 1.659013,-1.8013391 h 2.909276 v 1.4174991 l -1.454416,1.4175 -1.274727,5.139825 a 6.4416429,6.4416429 0 0 0 4.602537,-6.173485 6.4416429,6.4416429 0 0 0 -6.441683,-6.4416831 6.4416429,6.4416429 0 0 0 -0.03558,0 z" />
      <path
         id="path886"
         style="fill:#b9bbbe;fill-opacity:1;stroke:#000000;stroke-width:0.428139;stroke-opacity:0"
         d="M 15.463381,15.652752 A 7.4222932,7.4222932 0 0 1 10.181672,17.860617 7.4222932,7.4222932 0 0 1 4.9813571,15.734146 9.6225279,9.6225279 0 0 0 0.62344858,23.282875 H 10.246164 19.868438 A 9.6225279,9.6225279 0 0 0 15.463381,15.652752 Z" />
      <path
         id="path894"
         style="fill:#b9bbbe;fill-opacity:1;stroke:#000000;stroke-width:0.190687;stroke-opacity:0"
         d="m 19.207363,8.0606779 a 4.2857528,4.2857528 0 0 0 -2.520777,0.8366416 6.4416429,6.4416429 0 0 1 0.24443,1.7580325 6.4416429,6.4416429 0 0 1 -0.0186,0.492476 h 1.214396 l 1.104326,1.198894 1.103808,-1.198894 h 1.935283 v 0.943095 l -0.967383,0.943095 -0.84801,3.419946 a 4.2857528,4.2857528 0 0 0 3.061828,-4.107242 4.2857528,4.2857528 0 0 0 -4.285526,-4.2860441 4.2857528,4.2857528 0 0 0 -0.02377,0 z m -2.557467,4.4767301 a 6.4416429,6.4416429 0 0 1 -1.066085,2.059822 4.2857528,4.2857528 0 0 0 2.423108,1.856217 l -0.847493,-3.419429 z" />
      <path
         id="path896"
         style="fill:#b9bbbe;fill-opacity:1;stroke:#000000;stroke-width:0.284849;stroke-opacity:0"
         d="m 22.74502,15.815827 a 4.9381988,4.9381988 0 0 1 -3.514026,1.468937 4.9381988,4.9381988 0 0 1 -3.459872,-1.414783 6.4020586,6.4020586 0 0 0 -2.899403,5.022319 h 6.402183 6.40189 A 6.4020586,6.4020586 0 0 0 22.74502,15.815827 Z" />
    </g>
  </g>
  <g
     inkscape:groupmode="layer"
     id="layer4"
     inkscape:label="monster_book"
     style="display:none;opacity:1">
    <g
       id="g882"
       transform="translate(0,0.20480567)">
      <path
         style="fill:#b9bbbe;fill-opacity:1;stroke:#b9bbbe;stroke-width:0.264583px;stroke-linecap:butt;stroke-linejoin:miter;stroke-opacity:1"
         d="m 20.835903,20.437649 1.93696,-1.466297 -14.6629722,-0.506869 c 0,0 -3.3308481,1.176659 -1.8826533,3.837717 l 15.4594795,0.524971 c 0,0 -0.362049,-1.212864 0.108615,-1.936961 z"
         id="path864" />
      <path
         id="path866"
         style="opacity:0.83;fill:#b9bbbe;fill-opacity:1;stroke:#b9bbbe;stroke-width:0.999999px;stroke-linecap:butt;stroke-linejoin:miter;stroke-opacity:1"
         d="M 15.578125,4.546875 C 3.9670958,6.5788053 3.1933594,20.029297 3.1933594,20.029297 L 18.384766,79.921875 C 20.610213,67.2465 31.058594,66.085938 31.058594,66.085938 L 91.533203,68.3125 68.117188,7.3535156 Z m 3.724609,7.113281 13.740235,47.121094 -3.095703,1.015625 -13.740235,-47.21875 z m 10.208985,3.72461 c 4.983067,6.676342 10.884765,7.498046 10.884765,7.498046 l -2.371093,1.404297 8.273437,3.966797 -1.83789,3.046875 C 29.608495,29.655886 29.511719,15.384766 29.511719,15.384766 Z m 33.365234,0.693359 c 4.036698,15.325778 -7.337891,16.384766 -7.337891,16.384766 l -2.564453,-2.757813 4.427735,-2.816406 -1.640625,-2.59961 c 3.48935,-0.889441 7.115234,-8.210937 7.115234,-8.210937 z m 8.347656,16.283203 -1.574218,22.167969 -3.490235,-4.925781 -3.55664,8.96289 -7.664063,-8.347656 -3.830078,8.484375 -8.210937,-11.083984 -2.804688,4.037109 -8.279297,-17.789062 13.957031,10.537109 1.710938,-6.294922 9.373047,6.568359 4.720703,-8.552734 3.353516,6.705078 z"
         transform="scale(0.26458333)" />
    </g>
  </g>
  <g
     inkscape:groupmode="layer"
     id="layer5"
     inkscape:label="encounter"
     style="display:none">
    <g
       id="g967"
       transform="matrix(-1,0,0,1,25.874798,0)">
      <circle
         style="display:inline;fill:#b9bbbe;fill-opacity:1;stroke:#b9bbbe;stroke-width:0.386948;stroke-opacity:1"
         id="circle1110-1"
         cx="-22.124041"
         cy="21.7787"
         r="1.7744484"
         transform="scale(-1,1)" />
      <path
         style="display:inline;fill:#b9bbbe;fill-opacity:1;stroke:none;stroke-width:0.284395px;stroke-linecap:butt;stroke-linejoin:miter;stroke-opacity:1"
         d="m 22.124045,21.778697 -0.05224,-1.927211 -3.0516,-3.019002 2.569084,-2.608208 -1.082403,-1.082409 -4.016643,3.051606 -2.973359,3.951436 1.017201,1.069366 2.608211,-2.608208 3.058123,3.129852 1.923626,0.04278"
         id="path1112-5" />
      <path
         style="display:inline;fill:#b9bbbe;fill-opacity:1;stroke:none;stroke-width:0.284395px;stroke-linecap:butt;stroke-linejoin:miter;stroke-opacity:1"
         d="m 17.550224,14.475339 -1.539974,1.161897 -1.1619,1.56764 L 3.9025344,6.8215649 1.7828348,1.4559318 7.1761374,3.5018556 Z"
         id="path1114-2" />
    </g>
  </g>
  <g
     inkscape:groupmode="layer"
     id="layer3"
     inkscape:label="encounters"
     style="display:none">
    <circle
       style="fill:#b9bbbe;fill-opacity:1;stroke:#b9bbbe;stroke-width:0.386947;stroke-opacity:1"
       id="path1046"
       cx="2.6023076"
       cy="21.7787"
       r="1.7744484" />
    <path
       style="fill:#b9bbbe;fill-opacity:1;stroke:none;stroke-width:0.284396px;stroke-linecap:butt;stroke-linejoin:miter;stroke-opacity:1"
       d="M 2.6023123,21.778697 2.6545513,19.851486 5.706156,16.832484 3.1370694,14.224276 4.2194757,13.141867 8.2361179,16.193473 11.209478,20.144909 10.192276,21.214275 7.5840649,18.606067 4.525942,21.735919 2.6023133,21.7787"
       id="path1048" />
    <path
       id="path1050"
       style="fill:#b9bbbe;fill-opacity:1;stroke:none;stroke-width:0.284396px;stroke-linecap:butt;stroke-linejoin:miter;stroke-opacity:1"
       d="m 22.94352,1.4558287 -5.393538,2.045768 -4.766978,5.0430451 2.942837,3.1128102 5.098034,-4.8358562 z M 9.0330764,12.511197 l -1.8569116,1.964115 1.5397438,1.162028 1.1620251,1.567515 2.0513223,-1.94634 z" />
    <circle
       style="fill:#b9bbbe;fill-opacity:1;stroke:#b9bbbe;stroke-width:0.386947;stroke-opacity:1"
       id="circle1110"
       cx="-22.124041"
       cy="21.7787"
       r="1.7744484"
       transform="scale(-1,1)" />
    <path
       style="fill:#b9bbbe;fill-opacity:1;stroke:none;stroke-width:0.284396px;stroke-linecap:butt;stroke-linejoin:miter;stroke-opacity:1"
       d="m 22.124045,21.778697 -0.05224,-1.927211 -3.0516,-3.019002 2.569084,-2.608208 -1.082404,-1.082409 -4.016642,3.051606 -2.973359,3.951436 1.017201,1.069366 2.608211,-2.608208 3.058123,3.129852 1.923626,0.04278"
       id="path1112" />
    <path
       style="fill:#b9bbbe;fill-opacity:1;stroke:none;stroke-width:0.284396px;stroke-linecap:butt;stroke-linejoin:miter;stroke-opacity:1"
       d="m 17.550224,14.475339 -1.539974,1.161897 -1.1619,1.56764 L 3.9025344,6.8215653 1.7828348,1.4559324 7.1761373,3.5018562 Z"
       id="path1114" />
  </g>
  <g
     inkscape:groupmode="layer"
     id="layer6"
     inkscape:label="settings"
     style="display:none">
    <path
       id="path1024"
       style="fill:#b9bbbe;fill-opacity:1;stroke:#b9bbbe;stroke-width:0.37173px;stroke-linecap:butt;stroke-linejoin:miter;stroke-opacity:1"
       d="M 8.773496,1.0978596 9.0825624,4.7507349 A 8.3401699,8.3401699 0 0 0 6.4452981,6.7742746 L 2.9964846,5.5306294 2.0518562,7.1667738 4.8532916,9.5317113 A 8.3401699,8.3401699 0 0 0 4.4189733,12.828309 l -3.317315,1.558589 0.4889469,1.824774 3.652174,-0.308878 a 8.3401699,8.3401699 0 0 0 2.0244292,2.637777 l -1.2438334,3.448113 1.6361443,0.944628 2.3649377,-2.801434 a 8.3401699,8.3401699 0 0 0 3.295896,0.434506 l 1.558589,3.317312 1.824774,-0.488946 -0.308177,-3.65236 a 8.3401699,8.3401699 0 0 0 2.637779,-2.024429 l 3.448113,1.243832 0.944627,-1.636144 -2.801434,-2.364937 a 8.3401699,8.3401699 0 0 0 0.433804,-3.295708 L 24.376443,10.106226 23.887496,8.281451 20.234622,8.5905181 A 8.3401699,8.3401699 0 0 0 18.210894,5.9525525 L 19.454539,2.5037389 17.818395,1.5591104 15.453457,4.3605457 A 8.3401699,8.3401699 0 0 0 12.157749,3.9267411 l -1.55948,-3.31782813 z m 2.769145,6.6850415 a 4.6210264,4.6210264 0 0 1 5.659814,3.2676949 4.6210264,4.6210264 0 0 1 -3.267883,5.659115 4.6210264,4.6210264 0 0 1 -5.6589254,-3.267183 4.6210264,4.6210264 0 0 1 3.2669944,-5.6596269 z" />
  </g>
  <g
     inkscape:groupmode="layer"
     id="layer7"
     inkscape:label="message"
     style="display:none">
    <path
       id="path1049"
       style="fill:#b9bbbe;fill-opacity:1;stroke:#b9bbbe;stroke-width:0.283606px;stroke-linecap:butt;stroke-linejoin:miter;stroke-opacity:1"
       d="m 2.4961852,4.4457948 c -0.8477989,0 -1.52992066,0.6826764 -1.52992074,1.5304744 V 16.560528 c 0,0.847796 0.68212184,1.530474 1.52992074,1.530474 H 17.368874 c -0.08107,1.759075 -1.930403,3.273099 -1.930403,3.273099 2.799791,-0.499962 3.968476,-2.128002 4.451282,-3.273099 h 2.785098 c 0.847798,0 1.530475,-0.682678 1.530474,-1.530474 V 5.9762692 c 0,-0.847798 -0.682676,-1.5304744 -1.530474,-1.5304744 z m 3.1866881,2.7751274 h 2.0212455 c 0.5292785,0 0.9555078,0.4262292 0.9555078,0.955508 0,0.5292772 -0.4262293,0.9555078 -0.9555078,0.9555078 H 5.6828733 c -0.5292788,0 -0.9549541,-0.4262306 -0.9549541,-0.9555078 0,-0.5292788 0.4256753,-0.955508 0.9549541,-0.955508 z m 4.5149827,0.00665 h 6.774413 c 0.541397,0 0.977111,0.435713 0.977111,0.9771108 0,0.5413979 -0.435714,0.9771106 -0.977111,0.9771106 h -6.774413 c -0.541398,0 -0.9771108,-0.4357127 -0.9771108,-0.9771106 0,-0.5413978 0.4357128,-0.9771108 0.9771108,-0.9771108 z M 8.6252839,10.277994 H 19.294291 c 0.51047,0 0.921166,0.410696 0.921166,0.921165 0,0.510469 -0.410696,0.921719 -0.921166,0.921719 H 8.6252839 c -0.5104684,0 -0.921719,-0.41125 -0.921719,-0.921719 0,-0.510469 0.4112506,-0.921165 0.921719,-0.921165 z m 7.6833911,3.002233 h 0.09195 c 0.521747,0 0.94166,0.420466 0.94166,0.942214 0,0.521747 -0.419913,0.94166 -0.94166,0.94166 h -0.09195 c -0.521747,0 -0.94166,-0.419913 -0.94166,-0.94166 0,-0.521748 0.419913,-0.942214 0.94166,-0.942214 z m -9.9788259,0.0022 H 13.76564 c 0.520769,0 0.939998,0.419229 0.939998,0.939998 0,0.520769 -0.419229,0.939998 -0.939998,0.939998 H 6.3298491 c -0.5207692,0 -0.9399982,-0.419229 -0.9399984,-0.939998 0,-0.520769 0.4192292,-0.939998 0.9399984,-0.939998 z" />
  </g>
  <g
     inkscape:groupmode="layer"
     id="layer8"
     inkscape:label="dm"
     style="display:none">
    <path
       id="path888"
       style="fill:#b9bbbe;fill-opacity:1;stroke:#b9bbbe;stroke-width:0.214945px;stroke-linecap:butt;stroke-linejoin:miter;stroke-opacity:1"
       d="m 13.61317,7.6299902 -3.436604,0.015533 -0.008,0.7753979 C 9.2143683,7.6916784 7.1761492,7.6312495 7.1761492,7.6312495 l -4.1582656,0.00546 0.00588,10.3962935 c 0,0 2.3273329,0.02328 4.0961331,0 1.7688,-0.02327 3.0621293,-0.983206 3.0621293,-0.983206 l -0.01091,0.992862 2.106631,0.0059 -0.08774,-8.4533905 2.863557,8.4365975 1.908898,0.0055 2.836269,-8.4311403 -0.0932,8.4256823 2.314859,0.01133 h 2.345924 L 22.020381,16.154749 V 7.6367072 l -3.341306,8.396e-4 -2.575564,7.6570022 z M 3.0178836,7.6367072 H 0.67195852 L 3.0178836,9.5250341 Z M 6.1916835,9.5283926 C 7.6627244,9.542864 9.7888833,9.9335564 9.7580102,12.82016 9.7200129,16.372908 6.927199,16.125782 6.927199,16.125782 L 5.3696863,16.144674 5.3125912,9.5523221 C 5.5476996,9.5416354 5.8522126,9.525053 6.1916835,9.5283926 Z" />
  </g>
  <g
     inkscape:groupmode="layer"
     id="layer9"
     inkscape:label="plus"
     style="display:none">
    <path
       id="path887"
       style="opacity:1;fill:#b9bbbe;fill-opacity:1;stroke:none;stroke-width:1.02275;stroke-opacity:1"
       d="M 12.481022,0.44066032 A 12.02567,12.02567 0 0 0 0.45510607,12.466576 12.02567,12.02567 0 0 0 12.481022,24.492491 12.02567,12.02567 0 0 0 24.506937,12.466576 12.02567,12.02567 0 0 0 12.481022,0.44066032 Z M 11.374771,6.2687129 h 2.212504 c 0.245675,0 0.442816,0.1987467 0.442816,0.444405 v 4.2043891 h 4.204389 c 0.245646,0 0.444406,0.19715 0.444406,0.442818 v 2.212504 c 0,0.245675 -0.198747,0.442816 -0.444406,0.442816 h -4.204389 v 4.204389 c 0,0.245677 -0.197149,0.444406 -0.442816,0.444406 h -2.212504 c -0.245646,0 -0.442818,-0.198747 -0.442818,-0.444406 V 14.015645 H 6.7275637 c -0.2456768,0 -0.444405,-0.197149 -0.444405,-0.442816 v -2.212504 c 0,-0.245677 0.1987467,-0.442818 0.444405,-0.442818 H 10.931953 V 6.7131179 c 0,-0.245646 0.19715,-0.444405 0.442818,-0.444405 z" />
  </g>
  <g
     inkscape:groupmode="layer"
     id="g900"
     inkscape:label="minus"
     style="display:none">
    <path
       id="path898"
       style="opacity:1;fill:#b9bbbe;fill-opacity:1;stroke:none;stroke-width:3.86551;stroke-opacity:1"
       d="M 47.171875,1.6660156 A 45.45135,45.45135 0 0 0 1.7207031,47.117188 45.45135,45.45135 0 0 0 47.171875,92.570312 45.45135,45.45135 0 0 0 92.625,47.117188 45.45135,45.45135 0 0 0 47.171875,1.6660156 Z M 25.427734,41.263672 h 9.835938 6.054687 11.708985 3.765625 12.125 c 0.928426,0 1.679687,0.745319 1.679687,1.673828 v 8.361328 c 0,0.928536 -0.751212,1.673828 -1.679687,1.673828 H 58.130859 53.027344 41.318359 37.222656 25.427734 c -0.928542,0 -1.679687,-0.745323 -1.679687,-1.673828 V 42.9375 c 0,-0.928543 0.751215,-1.673828 1.679687,-1.673828 z"
       transform="scale(0.26458333)" />
  </g>
  <g
     inkscape:groupmode="layer"
     id="layer10"
     inkscape:label="edit"
     style="display:none">
    <path
       style="fill:#b9bbbe;fill-opacity:1;stroke:#b9bbbe;stroke-width:0.264583px;stroke-linecap:butt;stroke-linejoin:miter;stroke-opacity:1"
       d="M 2.2822905,16.839603 14.927413,4.2438267 20.95081,10.230213 8.3149394,22.866083 Z"
       id="path889" />
    <path
       style="fill:#b9bbbe;fill-opacity:1;stroke:#b9bbbe;stroke-width:0.264583px;stroke-linecap:butt;stroke-linejoin:miter;stroke-opacity:1"
       d="m 16.050053,3.0841762 5.993898,6.0361048 1.504781,-1.5135042 c 0,0 1.692167,-1.7591786 -0.02264,-3.5233273 -1.714801,-1.7641489 -2.726411,-2.7264119 -2.726411,-2.7264119 0,0 -1.505078,-1.33236419 -3.133523,0.1110303 -1.628445,1.4433946 -1.616109,1.6161083 -1.616109,1.6161083 z"
       id="path891" />
    <path
       style="fill:#b9bbbe;fill-opacity:1;stroke:#b9bbbe;stroke-width:0.259381px;stroke-linecap:butt;stroke-linejoin:miter;stroke-opacity:1"
       d="m 1.4371327,18.237818 5.6410648,5.710648 -5.6338446,0.0049 z"
       id="path893"
       sodipodi:nodetypes="cccc" />
  </g>
  <g
     inkscape:groupmode="layer"
     id="layer11"
     inkscape:label="warn"
     style="display:none">
    <path
       id="path895"
       style="opacity:1;fill:#b9bbbe;fill-opacity:1;stroke:#000000;stroke-width:0.442249;stroke-opacity:0"
       inkscape:transform-center-x="1.8525969"
       inkscape:transform-center-y="-1.8147658"
       d="M 12.468682,1.1756754 C 10.792566,1.1849205 -0.23738558,20.508715 0.60302834,21.959442 1.443442,23.41017 23.676412,23.271774 24.507363,21.817823 25.338313,20.363871 14.144797,1.1664308 12.468682,1.1756754 Z m -1.634952,5.3881187 3.663899,0.011021 -0.991882,8.8833979 -1.845448,0.0077 z m 1.77602,9.7672729 a 1.8917234,1.8917234 0 0 1 5.5e-4,0 1.8917234,1.8917234 0 0 1 0.0226,0 1.8917234,1.8917234 0 0 1 1.891737,1.891739 1.8917234,1.8917234 0 0 1 -1.891737,1.891737 1.8917234,1.8917234 0 0 1 -1.891738,-1.891737 1.8917234,1.8917234 0 0 1 1.868594,-1.891739 z" />
  </g>
  <g
     inkscape:groupmode="layer"
     id="layer12"
     inkscape:label="download"
     style="display:none">
    <rect
       style="fill:#b9bbbe;fill-opacity:1;stroke:#b9bbbe;stroke-width:0.824228;stroke-miterlimit:4;stroke-dasharray:none;stroke-opacity:1"
       id="rect881"
       width="16.936823"
       height="2.0211654"
       x="3.9379878"
       y="20.067379"
       ry="0.21416323" />
    <path
       sodipodi:type="star"
       style="fill:#b9bbbe;fill-opacity:1;stroke:#b9bbbe;stroke-width:1.5;stroke-miterlimit:4;stroke-dasharray:none;stroke-opacity:1"
       id="path885"
       sodipodi:sides="3"
       sodipodi:cx="12.406399"
       sodipodi:cy="13.658083"
       sodipodi:r1="4.354053"
       sodipodi:r2="2.1770265"
       sodipodi:arg1="1.5707963"
       sodipodi:arg2="2.6179939"
       inkscape:flatsided="true"
       inkscape:rounded="0.04"
       inkscape:randomized="0"
       d="m 12.406399,18.012136 c -0.301658,0 -3.9215496,-6.269836 -3.7707208,-6.531079 0.1508288,-0.261244 7.3906118,-0.261244 7.5414408,-10e-7 0.150829,0.261244 -3.469062,6.53108 -3.77072,6.53108 z"
       inkscape:transform-center-x="-0.0044846098"
       inkscape:transform-center-y="0.9139413" />
    <rect
       style="fill:#b9bbbe;fill-opacity:1;stroke:#b9bbbe;stroke-width:0.708813;stroke-miterlimit:4;stroke-dasharray:none;stroke-opacity:1"
       id="rect887"
       width="11.181645"
       height="2.2641056"
       x="2.8649805"
       y="-13.538452"
       ry="0.23990525"
       transform="rotate(90)" />
  </g>
  <g
     inkscape:groupmode="layer"
     id="layer13"
     inkscape:label="roll"
     style="display:none">
    <path
       sodipodi:type="star"
       style="fill:none;fill-opacity:1;stroke:#b9bbbe;stroke-width:1.5918;stroke-opacity:1"
       id="path890"
       sodipodi:sides="6"
       sodipodi:cx="12.567085"
       sodipodi:cy="12.406654"
       sodipodi:r1="11.646833"
       sodipodi:r2="10.086454"
       sodipodi:arg1="0.78539816"
       sodipodi:arg2="1.3089969"
       inkscape:flatsided="true"
       inkscape:rounded="0.04"
       inkscape:randomized="0"
       d="M 20.80264,20.642209 C 20.473218,20.971631 10.002662,23.777208 9.552663,23.656632 9.1026639,23.536055 1.437685,15.871076 1.3171081,15.421077 1.1965312,14.971078 4.0021082,4.5005217 4.3315303,4.1710995 4.6609525,3.8416773 15.131508,1.0361003 15.581508,1.1566772 c 0.449999,0.1205768 8.114978,7.7855557 8.235554,8.2355548 0.120577,0.4499991 -2.685,10.920555 -3.014422,11.249977 z" />
    <path
       sodipodi:type="star"
       style="fill:none;fill-opacity:1;stroke:#b9bbbe;stroke-width:1.5;stroke-opacity:1"
       id="path899"
       sodipodi:sides="3"
       sodipodi:cx="12.567085"
       sodipodi:cy="12.406654"
       sodipodi:r1="6.7782969"
       sodipodi:r2="3.3891482"
       sodipodi:arg1="1.8325957"
       sodipodi:arg2="2.8797933"
       inkscape:flatsided="true"
       inkscape:rounded="0.04"
       inkscape:randomized="0"
       d="M 10.812733,18.953986 C 10.359121,18.832441 7.4420381,7.9457421 7.7741055,7.6136747 8.1061728,7.2816073 18.992872,10.198689 19.114417,10.652302 c 0.121545,0.453612 -7.848072,8.42323 -8.301684,8.301684 z"
       inkscape:transform-center-x="-0.86472801"
       inkscape:transform-center-y="0.86472801" />
    <path
       style="fill:none;stroke:#b9bbbe;stroke-width:1.565;stroke-linecap:butt;stroke-linejoin:round;stroke-miterlimit:4;stroke-dasharray:none;stroke-opacity:1"
       d="m 1.3171081,15.421076 6.4569973,-7.8074015 7.8074016,-6.4569974 3.53291,9.4956249 1.688223,9.989907 -9.989907,-1.688223 z"
       id="path901" />
    <path
       style="fill:none;stroke:#b9bbbe;stroke-width:1.565;stroke-linecap:butt;stroke-linejoin:miter;stroke-miterlimit:4;stroke-dasharray:none;stroke-opacity:1"
       d="M 4.3315302,4.1710993 7.7741054,7.6136745"
       id="path903" />
    <path
       style="fill:none;stroke:#b9bbbe;stroke-width:1.565;stroke-linecap:butt;stroke-linejoin:miter;stroke-miterlimit:4;stroke-dasharray:none;stroke-opacity:1"
       d="m 19.114417,10.652302 4.702645,-1.26007"
       id="path905" />
    <path
       style="fill:none;stroke:#b9bbbe;stroke-width:1.565;stroke-linecap:butt;stroke-linejoin:miter;stroke-miterlimit:4;stroke-dasharray:none;stroke-opacity:1"
       d="M 9.5526629,23.656631 10.812731,18.953986"
       id="path907" />
  </g>
  <g
     inkscape:groupmode="layer"
     id="g936"
     inkscape:label="fight"
     style="display:none">
    <g
       id="g934"
       transform="rotate(180,12.937399,12.601277)">
      <circle
         style="display:inline;fill:#b9bbbe;fill-opacity:1;stroke:#b9bbbe;stroke-width:0.386948;stroke-opacity:1"
         id="circle928"
         cx="-22.124041"
         cy="21.7787"
         r="1.7744484"
         transform="scale(-1,1)" />
      <path
         style="display:inline;fill:#b9bbbe;fill-opacity:1;stroke:none;stroke-width:0.284395px;stroke-linecap:butt;stroke-linejoin:miter;stroke-opacity:1"
         d="m 22.124045,21.778697 -0.05224,-1.927211 -3.0516,-3.019002 2.569084,-2.608208 -1.082403,-1.082409 -4.016643,3.051606 -2.973359,3.951436 1.017201,1.069366 2.608211,-2.608208 3.058123,3.129852 1.923626,0.04278"
         id="path930" />
      <path
         style="display:inline;fill:#b9bbbe;fill-opacity:1;stroke:none;stroke-width:0.284395px;stroke-linecap:butt;stroke-linejoin:miter;stroke-opacity:1"
         d="m 17.550224,14.475339 -1.539974,1.161897 -1.1619,1.56764 L 3.9025344,6.8215649 1.7828348,1.4559318 7.1761374,3.5018556 Z"
         id="path932" />
    </g>
    <g
       id="g1067"
       transform="translate(1.0209759,0.13234872)">
      <path
         sodipodi:type="star"
         style="fill:#b9bbbe;fill-opacity:1;stroke:#b9bbbe;stroke-width:1.565;stroke-linejoin:round;stroke-miterlimit:4;stroke-dasharray:none;stroke-opacity:1"
         id="path1018"
         sodipodi:sides="3"
         sodipodi:cx="-30.667089"
         sodipodi:cy="12.818919"
         sodipodi:r1="7.9844699"
         sodipodi:r2="3.9922349"
         sodipodi:arg1="0.68139765"
         sodipodi:arg2="1.7285952"
         inkscape:flatsided="true"
         inkscape:rounded="0.04"
         inkscape:randomized="0"
         inkscape:transform-center-x="2.6300351"
         inkscape:transform-center-y="-0.74586657"
         transform="matrix(0.74284745,-0.02451435,0.00448042,0.2125734,35.022087,19.281848)"
         d="m -24.465607,17.848171 c -0.348436,0.429651 -13.459813,-1.656655 -13.657683,-2.173236 -0.197871,-0.516581 8.164611,-10.8282126 8.710919,-10.7412832 0.546307,0.086929 5.295201,12.4848672 4.946764,12.9145192 z" />
      <path
         sodipodi:type="star"
         style="fill:#b9bbbe;fill-opacity:1;stroke:#b9bbbe;stroke-width:1.565;stroke-linejoin:round;stroke-miterlimit:4;stroke-dasharray:none;stroke-opacity:1"
         id="path1020"
         sodipodi:sides="3"
         sodipodi:cx="-30.667089"
         sodipodi:cy="12.818919"
         sodipodi:r1="7.9844699"
         sodipodi:r2="3.9922349"
         sodipodi:arg1="0.68139765"
         sodipodi:arg2="1.7285952"
         inkscape:flatsided="true"
         inkscape:rounded="0.04"
         inkscape:randomized="0"
         inkscape:transform-center-x="-1.285127"
         inkscape:transform-center-y="0.89265856"
         transform="matrix(-0.3307651,-0.29356915,0.06230505,-0.082335,3.6713346,13.476366)"
         d="m -24.465607,17.848171 c -0.348436,0.429651 -13.459813,-1.656655 -13.657683,-2.173236 -0.197871,-0.516581 8.164611,-10.8282126 8.710919,-10.7412832 0.546307,0.086929 5.295201,12.4848672 4.946764,12.9145192 z" />
      <path
         sodipodi:type="star"
         style="fill:#b9bbbe;fill-opacity:1;stroke:#b9bbbe;stroke-width:1.565;stroke-linejoin:round;stroke-miterlimit:4;stroke-dasharray:none;stroke-opacity:1"
         id="path1022"
         sodipodi:sides="3"
         sodipodi:cx="-30.667089"
         sodipodi:cy="12.818919"
         sodipodi:r1="7.9844699"
         sodipodi:r2="3.9922349"
         sodipodi:arg1="0.68139765"
         sodipodi:arg2="1.7285952"
         inkscape:flatsided="true"
         inkscape:rounded="0.04"
         inkscape:randomized="0"
         inkscape:transform-center-x="1.9664133"
         inkscape:transform-center-y="-1.6550469"
         transform="matrix(0.59718285,0.40723747,0.08486947,-0.16008974,29.858264,36.181285)"
         d="m -24.465607,17.848171 c -0.348436,0.429651 -13.459813,-1.656655 -13.657683,-2.173236 -0.197871,-0.516581 8.164611,-10.8282126 8.710919,-10.7412832 0.546307,0.086929 5.295201,12.4848672 4.946764,12.9145192 z" />
    </g>
    <path
       sodipodi:type="star"
       style="fill:#b9bbbe;fill-opacity:1;stroke:#b9bbbe;stroke-width:1.565;stroke-linejoin:round;stroke-miterlimit:4;stroke-dasharray:none;stroke-opacity:1"
       id="path1029"
       sodipodi:sides="3"
       sodipodi:cx="-30.667089"
       sodipodi:cy="12.818919"
       sodipodi:r1="7.9844699"
       sodipodi:r2="3.9922349"
       sodipodi:arg1="0.68139765"
       sodipodi:arg2="1.7285952"
       inkscape:flatsided="true"
       inkscape:rounded="0.04"
       inkscape:randomized="0"
       inkscape:transform-center-x="-0.78991323"
       inkscape:transform-center-y="0.72322657"
       transform="matrix(-0.20578717,-0.21037726,0.09519712,-0.01316651,1.915884,8.8987221)"
       d="m -24.465607,17.848171 c -0.348436,0.429651 -13.459813,-1.656655 -13.657683,-2.173236 -0.197871,-0.516581 8.164611,-10.8282126 8.710919,-10.7412832 0.546307,0.086929 5.295201,12.4848672 4.946764,12.9145192 z" />
    <g
       id="g1062"
       transform="translate(-0.334231,0.09358468)">
      <path
         sodipodi:type="star"
         style="fill:#b9bbbe;fill-opacity:1;stroke:#b9bbbe;stroke-width:1.565;stroke-linejoin:round;stroke-miterlimit:4;stroke-dasharray:none;stroke-opacity:1"
         id="path1025"
         sodipodi:sides="3"
         sodipodi:cx="-30.667089"
         sodipodi:cy="12.818919"
         sodipodi:r1="7.9844699"
         sodipodi:r2="3.9922349"
         sodipodi:arg1="0.68139765"
         sodipodi:arg2="1.7285952"
         inkscape:flatsided="true"
         inkscape:rounded="0.04"
         inkscape:randomized="0"
         inkscape:transform-center-x="1.9958878"
         inkscape:transform-center-y="-0.52766827"
         transform="matrix(-0.0095647,-0.56391968,0.15041905,-0.00132526,21.358532,-3.0478579)"
         d="m -24.465607,17.848171 c -0.348436,0.429651 -13.459813,-1.656655 -13.657683,-2.173236 -0.197871,-0.516581 8.164611,-10.8282126 8.710919,-10.7412832 0.546307,0.086929 5.295201,12.4848672 4.946764,12.9145192 z" />
      <path
         sodipodi:type="star"
         style="fill:#b9bbbe;fill-opacity:1;stroke:#b9bbbe;stroke-width:1.565;stroke-linejoin:round;stroke-miterlimit:4;stroke-dasharray:none;stroke-opacity:1"
         id="path1027"
         sodipodi:sides="3"
         sodipodi:cx="-30.667089"
         sodipodi:cy="12.818919"
         sodipodi:r1="7.9844699"
         sodipodi:r2="3.9922349"
         sodipodi:arg1="0.68139765"
         sodipodi:arg2="1.7285952"
         inkscape:flatsided="true"
         inkscape:rounded="0.04"
         inkscape:randomized="0"
         inkscape:transform-center-x="1.8136428"
         inkscape:transform-center-y="0.73154897"
         transform="matrix(-0.24536514,-0.46762531,-0.09070121,0.09217367,15.965972,-0.67722959)"
         d="m -24.465607,17.848171 c -0.348436,0.429651 -13.459813,-1.656655 -13.657683,-2.173236 -0.197871,-0.516581 8.164611,-10.8282126 8.710919,-10.7412832 0.546307,0.086929 5.295201,12.4848672 4.946764,12.9145192 z" />
    </g>
    <path
       sodipodi:type="star"
       style="fill:#b9bbbe;fill-opacity:1;stroke:#b9bbbe;stroke-width:1.565;stroke-linejoin:round;stroke-miterlimit:4;stroke-dasharray:none;stroke-opacity:1"
       id="path1031"
       sodipodi:sides="3"
       sodipodi:cx="-30.667089"
       sodipodi:cy="12.818919"
       sodipodi:r1="7.9844699"
       sodipodi:r2="3.9922349"
       sodipodi:arg1="0.68139765"
       sodipodi:arg2="1.7285952"
       inkscape:flatsided="true"
       inkscape:rounded="0.04"
       inkscape:randomized="0"
       inkscape:transform-center-x="0.99262819"
       inkscape:transform-center-y="0.74405425"
       transform="matrix(-0.17890478,-0.30394949,0.07255523,-0.04184447,12.090098,3.9046466)"
       d="m -24.465607,17.848171 c -0.348436,0.429651 -13.459813,-1.656655 -13.657683,-2.173236 -0.197871,-0.516581 8.164611,-10.8282126 8.710919,-10.7412832 0.546307,0.086929 5.295201,12.4848672 4.946764,12.9145192 z" />
  </g>
  <g
     inkscape:groupmode="layer"
     id="layer14"
     inkscape:label="details">
    <g
       id="g1032"
       transform="rotate(-43.711947,10.355571,9.3398225)">
      <circle
         style="opacity:1;fill:none;fill-opacity:1;stroke:#b9bbbe;stroke-width:2.44993;stroke-miterlimit:4;stroke-dasharray:none;stroke-opacity:1"
         id="path1023"
         cx="9.9696331"
         cy="10.189349"
         r="8.1820068" />
      <rect
         style="opacity:1;fill:#b9bbbe;fill-opacity:1;stroke:none;stroke-width:1.69626;stroke-opacity:1"
         id="rect1025"
         width="1.7605275"
         height="5.8078589"
         x="9.0893698"
         y="18.840683"
         ry="0.68488896" />
      <rect
         style="opacity:1;fill:#b9bbbe;fill-opacity:1;stroke:none;stroke-width:2.5492;stroke-opacity:1"
         id="rect1027"
         width="3.0788262"
         height="7.5006313"
         x="8.4302197"
         y="21.370026"
         ry="0.88450831" />
    </g>
    <path
       style="opacity:1;fill:none;fill-opacity:1;stroke:#b9bbbe;stroke-width:1.384;stroke-linecap:round;stroke-miterlimit:4;stroke-dasharray:none;stroke-opacity:1"
       id="path1034"
       sodipodi:type="arc"
       sodipodi:cx="10.663657"
       sodipodi:cy="10.220575"
       sodipodi:rx="5.0850201"
       sodipodi:ry="5.0850201"
       sodipodi:start="5.0579175"
       sodipodi:end="0.070339938"
       sodipodi:open="true"
       sodipodi:arc-type="arc"
       d="m 12.385923,5.4360974 a 5.0850201,5.0850201 0 0 1 3.35018,5.1418626" />
  </g>
</svg>
