<?xml version="1.0" encoding="UTF-8" standalone="no"?>
<svg
   xmlns:dc="http://purl.org/dc/elements/1.1/"
   xmlns:cc="http://creativecommons.org/ns#"
   xmlns:rdf="http://www.w3.org/1999/02/22-rdf-syntax-ns#"
   xmlns:svg="http://www.w3.org/2000/svg"
   xmlns="http://www.w3.org/2000/svg"
   xmlns:sodipodi="http://sodipodi.sourceforge.net/DTD/sodipodi-0.dtd"
   xmlns:inkscape="http://www.inkscape.org/namespaces/inkscape"
   width="25mm"
   height="25mm"
   viewBox="0 0 25 25"
   version="1.1"
   id="svg8"
   sodipodi:docname="message.svg"
   inkscape:version="1.0.1 (3bc2e813f5, 2020-09-07)">
  <defs
     id="defs2">
    <rect
       x="78.618599"
       y="25.866491"
       width="31.398911"
       height="29.651831"
       id="rect1005" />
  </defs>
  <sodipodi:namedview
     id="base"
     pagecolor="#ffffff"
     bordercolor="#666666"
     borderopacity="1.0"
     inkscape:pageopacity="0.0"
     inkscape:pageshadow="2"
     inkscape:zoom="4.8978875"
     inkscape:cx="11.288988"
     inkscape:cy="14.945882"
     inkscape:document-units="mm"
     inkscape:current-layer="layer7"
     inkscape:document-rotation="0"
     showgrid="false"
     inkscape:object-paths="false"
     inkscape:snap-midpoints="true"
     inkscape:object-nodes="true"
     inkscape:snap-object-midpoints="true"
     inkscape:window-width="1920"
     inkscape:window-height="1017"
     inkscape:window-x="-8"
     inkscape:window-y="-8"
     inkscape:window-maximized="1" />
  <metadata
     id="metadata5">
    <rdf:RDF>
      <cc:Work
         rdf:about="">
        <dc:format>image/svg+xml</dc:format>
        <dc:type
           rdf:resource="http://purl.org/dc/dcmitype/StillImage" />
        <dc:title />
      </cc:Work>
    </rdf:RDF>
  </metadata>
  <g
     inkscape:groupmode="layer"
     id="layer7"
     inkscape:label="message">
    <path
       id="path1049"
       style="fill:#b9bbbe;fill-opacity:1;stroke:#b9bbbe;stroke-width:0.283606px;stroke-linecap:butt;stroke-linejoin:miter;stroke-opacity:1"
       d="m 2.4961852,4.4457948 c -0.8477989,0 -1.52992066,0.6826764 -1.52992074,1.5304744 V 16.560528 c 0,0.847796 0.68212184,1.530474 1.52992074,1.530474 H 17.368874 c -0.08107,1.759075 -1.930403,3.273099 -1.930403,3.273099 2.799791,-0.499962 3.968476,-2.128002 4.451282,-3.273099 h 2.785098 c 0.847798,0 1.530475,-0.682678 1.530474,-1.530474 V 5.9762692 c 0,-0.847798 -0.682676,-1.5304744 -1.530474,-1.5304744 z m 3.1866881,2.7751274 h 2.0212455 c 0.5292785,0 0.9555078,0.4262292 0.9555078,0.955508 0,0.5292772 -0.4262293,0.9555078 -0.9555078,0.9555078 H 5.6828733 c -0.5292788,0 -0.9549541,-0.4262306 -0.9549541,-0.9555078 0,-0.5292788 0.4256753,-0.955508 0.9549541,-0.955508 z m 4.5149827,0.00665 h 6.774413 c 0.541397,0 0.977111,0.435713 0.977111,0.9771108 0,0.5413979 -0.435714,0.9771106 -0.977111,0.9771106 h -6.774413 c -0.541398,0 -0.9771108,-0.4357127 -0.9771108,-0.9771106 0,-0.5413978 0.4357128,-0.9771108 0.9771108,-0.9771108 z M 8.6252839,10.277994 H 19.294291 c 0.51047,0 0.921166,0.410696 0.921166,0.921165 0,0.510469 -0.410696,0.921719 -0.921166,0.921719 H 8.6252839 c -0.5104684,0 -0.921719,-0.41125 -0.921719,-0.921719 0,-0.510469 0.4112506,-0.921165 0.921719,-0.921165 z m 7.6833911,3.002233 h 0.09195 c 0.521747,0 0.94166,0.420466 0.94166,0.942214 0,0.521747 -0.419913,0.94166 -0.94166,0.94166 h -0.09195 c -0.521747,0 -0.94166,-0.419913 -0.94166,-0.94166 0,-0.521748 0.419913,-0.942214 0.94166,-0.942214 z m -9.9788259,0.0022 H 13.76564 c 0.520769,0 0.939998,0.419229 0.939998,0.939998 0,0.520769 -0.419229,0.939998 -0.939998,0.939998 H 6.3298491 c -0.5207692,0 -0.9399982,-0.419229 -0.9399984,-0.939998 0,-0.520769 0.4192292,-0.939998 0.9399984,-0.939998 z" />
  </g>
</svg>
