<?xml version="1.0" encoding="UTF-8" standalone="no"?>
<svg
   xmlns:dc="http://purl.org/dc/elements/1.1/"
   xmlns:cc="http://creativecommons.org/ns#"
   xmlns:rdf="http://www.w3.org/1999/02/22-rdf-syntax-ns#"
   xmlns:svg="http://www.w3.org/2000/svg"
   xmlns="http://www.w3.org/2000/svg"
   xmlns:sodipodi="http://sodipodi.sourceforge.net/DTD/sodipodi-0.dtd"
   xmlns:inkscape="http://www.inkscape.org/namespaces/inkscape"
   width="25mm"
   height="25mm"
   viewBox="0 0 25 25"
   version="1.1"
   id="svg8"
   sodipodi:docname="minus.svg"
   inkscape:version="1.0.1 (3bc2e813f5, 2020-09-07)">
  <defs
     id="defs2">
    <rect
       x="4.5376706"
       y="3.4572728"
       width="28.246506"
       height="26.868864"
       id="rect884" />
    <rect
       x="78.618599"
       y="25.866491"
       width="31.398911"
       height="29.651831"
       id="rect1005" />
  </defs>
  <sodipodi:namedview
     id="base"
     pagecolor="#ffffff"
     bordercolor="#666666"
     borderopacity="1.0"
     inkscape:pageopacity="0.0"
     inkscape:pageshadow="2"
     inkscape:zoom="5.3617098"
     inkscape:cx="18.000719"
     inkscape:cy="30.656736"
     inkscape:document-units="mm"
     inkscape:current-layer="g900"
     inkscape:document-rotation="0"
     showgrid="false"
     inkscape:object-paths="false"
     inkscape:snap-midpoints="false"
     inkscape:object-nodes="true"
     inkscape:snap-object-midpoints="true"
     inkscape:window-width="1920"
     inkscape:window-height="1017"
     inkscape:window-x="-8"
     inkscape:window-y="-8"
     inkscape:window-maximized="1"
     inkscape:snap-global="true"
     inkscape:snap-intersection-paths="true"
     inkscape:snap-smooth-nodes="true" />
  <metadata
     id="metadata5">
    <rdf:RDF>
      <cc:Work
         rdf:about="">
        <dc:format>image/svg+xml</dc:format>
        <dc:type
           rdf:resource="http://purl.org/dc/dcmitype/StillImage" />
        <dc:title />
      </cc:Work>
    </rdf:RDF>
  </metadata>
  <g
     inkscape:groupmode="layer"
     id="g900"
     inkscape:label="minus">
    <path
       id="path898"
       style="opacity:1;fill:#b9bbbe;fill-opacity:1;stroke:none;stroke-width:3.86551;stroke-opacity:1"
       d="M 47.171875 1.6660156 A 45.45135 45.45135 0 0 0 1.7207031 47.117188 A 45.45135 45.45135 0 0 0 47.171875 92.570312 A 45.45135 45.45135 0 0 0 92.625 47.117188 A 45.45135 45.45135 0 0 0 47.171875 1.6660156 z M 25.427734 41.263672 L 35.263672 41.263672 L 41.318359 41.263672 L 53.027344 41.263672 L 56.792969 41.263672 L 68.917969 41.263672 C 69.846395 41.263672 70.597656 42.008991 70.597656 42.9375 L 70.597656 51.298828 C 70.597656 52.227364 69.846444 52.972656 68.917969 52.972656 L 58.130859 52.972656 L 53.027344 52.972656 L 41.318359 52.972656 L 37.222656 52.972656 L 25.427734 52.972656 C 24.499192 52.972656 23.748047 52.227333 23.748047 51.298828 L 23.748047 42.9375 C 23.748047 42.008957 24.499262 41.263672 25.427734 41.263672 z "
       transform="scale(0.26458333)" />
  </g>
</svg>
