<?xml version="1.0" encoding="UTF-8" standalone="no"?>
<svg
   xmlns:dc="http://purl.org/dc/elements/1.1/"
   xmlns:cc="http://creativecommons.org/ns#"
   xmlns:rdf="http://www.w3.org/1999/02/22-rdf-syntax-ns#"
   xmlns:svg="http://www.w3.org/2000/svg"
   xmlns="http://www.w3.org/2000/svg"
   xmlns:sodipodi="http://sodipodi.sourceforge.net/DTD/sodipodi-0.dtd"
   xmlns:inkscape="http://www.inkscape.org/namespaces/inkscape"
   width="25mm"
   height="25mm"
   viewBox="0 0 25 25"
   version="1.1"
   id="svg8"
   sodipodi:docname="monster_book.svg"
   inkscape:version="1.0.1 (3bc2e813f5, 2020-09-07)">
  <defs
     id="defs2">
    <rect
       x="78.618599"
       y="25.866491"
       width="31.398911"
       height="29.651831"
       id="rect1005" />
  </defs>
  <sodipodi:namedview
     id="base"
     pagecolor="#ffffff"
     bordercolor="#666666"
     borderopacity="1.0"
     inkscape:pageopacity="0.0"
     inkscape:pageshadow="2"
     inkscape:zoom="5.030888"
     inkscape:cx="26.94423"
     inkscape:cy="61.335921"
     inkscape:document-units="mm"
     inkscape:current-layer="layer4"
     inkscape:document-rotation="0"
     showgrid="false"
     inkscape:object-paths="false"
     inkscape:snap-midpoints="true"
     inkscape:object-nodes="true"
     inkscape:snap-object-midpoints="true"
     inkscape:window-width="1920"
     inkscape:window-height="1017"
     inkscape:window-x="-8"
     inkscape:window-y="-8"
     inkscape:window-maximized="1" />
  <metadata
     id="metadata5">
    <rdf:RDF>
      <cc:Work
         rdf:about="">
        <dc:format>image/svg+xml</dc:format>
        <dc:type
           rdf:resource="http://purl.org/dc/dcmitype/StillImage" />
        <dc:title />
      </cc:Work>
    </rdf:RDF>
  </metadata>
  <g
     inkscape:groupmode="layer"
     id="layer4"
     inkscape:label="monster_book"
     style="opacity:1">
    <g
       id="g882"
       transform="translate(0,0.20480567)">
      <path
         style="fill:#b9bbbe;fill-opacity:1;stroke:#b9bbbe;stroke-width:0.264583px;stroke-linecap:butt;stroke-linejoin:miter;stroke-opacity:1"
         d="m 20.835903,20.437649 1.93696,-1.466297 -14.6629722,-0.506869 c 0,0 -3.3308481,1.176659 -1.8826533,3.837717 l 15.4594795,0.524971 c 0,0 -0.362049,-1.212864 0.108615,-1.936961 z"
         id="path864" />
      <path
         id="path866"
         style="opacity:0.83;fill:#b9bbbe;fill-opacity:1;stroke:#b9bbbe;stroke-width:0.999999px;stroke-linecap:butt;stroke-linejoin:miter;stroke-opacity:1"
         d="M 15.578125,4.546875 C 3.9670958,6.5788053 3.1933594,20.029297 3.1933594,20.029297 L 18.384766,79.921875 C 20.610213,67.2465 31.058594,66.085938 31.058594,66.085938 L 91.533203,68.3125 68.117188,7.3535156 Z m 3.724609,7.113281 13.740235,47.121094 -3.095703,1.015625 -13.740235,-47.21875 z m 10.208985,3.72461 c 4.983067,6.676342 10.884765,7.498046 10.884765,7.498046 l -2.371093,1.404297 8.273437,3.966797 -1.83789,3.046875 C 29.608495,29.655886 29.511719,15.384766 29.511719,15.384766 Z m 33.365234,0.693359 c 4.036698,15.325778 -7.337891,16.384766 -7.337891,16.384766 l -2.564453,-2.757813 4.427735,-2.816406 -1.640625,-2.59961 c 3.48935,-0.889441 7.115234,-8.210937 7.115234,-8.210937 z m 8.347656,16.283203 -1.574218,22.167969 -3.490235,-4.925781 -3.55664,8.96289 -7.664063,-8.347656 -3.830078,8.484375 -8.210937,-11.083984 -2.804688,4.037109 -8.279297,-17.789062 13.957031,10.537109 1.710938,-6.294922 9.373047,6.568359 4.720703,-8.552734 3.353516,6.705078 z"
         transform="scale(0.26458333)" />
    </g>
  </g>
</svg>
