<?xml version="1.0" encoding="UTF-8" standalone="no"?>
<svg
   xmlns:dc="http://purl.org/dc/elements/1.1/"
   xmlns:cc="http://creativecommons.org/ns#"
   xmlns:rdf="http://www.w3.org/1999/02/22-rdf-syntax-ns#"
   xmlns:svg="http://www.w3.org/2000/svg"
   xmlns="http://www.w3.org/2000/svg"
   xmlns:sodipodi="http://sodipodi.sourceforge.net/DTD/sodipodi-0.dtd"
   xmlns:inkscape="http://www.inkscape.org/namespaces/inkscape"
   width="25mm"
   height="25mm"
   viewBox="0 0 25 25"
   version="1.1"
   id="svg8"
   sodipodi:docname="monster_book.svg"
   inkscape:version="1.0.1 (3bc2e813f5, 2020-09-07)">
  <defs
     id="defs2">
    <rect
       x="78.618599"
       y="25.866491"
       width="31.398911"
       height="29.651831"
       id="rect1005" />
  </defs>
  <sodipodi:namedview
     id="base"
     pagecolor="#ffffff"
     bordercolor="#666666"
     borderopacity="1.0"
     inkscape:pageopacity="0.0"
     inkscape:pageshadow="2"
     inkscape:zoom="5.1675001"
     inkscape:cx="26.94423"
     inkscape:cy="61.335921"
     inkscape:document-units="mm"
     inkscape:current-layer="layer4"
     inkscape:document-rotation="0"
     showgrid="false"
     inkscape:object-paths="false"
     inkscape:snap-midpoints="true"
     inkscape:object-nodes="true"
     inkscape:snap-object-midpoints="true"
     inkscape:window-width="1920"
     inkscape:window-height="1017"
     inkscape:window-x="-8"
     inkscape:window-y="-8"
     inkscape:window-maximized="1" />
  <metadata
     id="metadata5">
    <rdf:RDF>
      <cc:Work
         rdf:about="">
        <dc:format>image/svg+xml</dc:format>
        <dc:type
           rdf:resource="http://purl.org/dc/dcmitype/StillImage" />
        <dc:title></dc:title>
      </cc:Work>
    </rdf:RDF>
  </metadata>
  <g
     inkscape:label="player"
     inkscape:groupmode="layer"
     id="layer1"
     style="display:none">
    <g
       id="g916">
      <path
         id="path835"
         style="fill:#b9bbbe;fill-opacity:1;stroke:#000000;stroke-width:0.332999;stroke-opacity:0"
         d="M 12.321839,1.5043 A 7.4842509,7.4842509 0 0 0 4.8788828,8.9885978 7.4842509,7.4842509 0 0 0 10.225845,16.160769 L 8.7453131,10.18956 7.0554935,8.542632 V 6.895704 h 3.3796395 l 1.928048,2.0928938 1.927531,-2.0928938 h 3.380156 v 1.646928 l -1.68982,1.646928 -1.481047,5.971728 A 7.4842509,7.4842509 0 0 0 19.847478,8.9885978 7.4842509,7.4842509 0 0 0 12.363181,1.5043 a 7.4842509,7.4842509 0 0 0 -0.04134,0 z" />
      <path
         id="path835-9"
         style="fill:#b9bbbe;fill-opacity:1;stroke:#000000;stroke-width:0.497435;stroke-opacity:0"
         d="m 18.499757,15.047143 a 8.6236237,8.6236237 0 0 1 -6.136577,2.565218 8.6236237,8.6236237 0 0 1 -6.0420088,-2.47065 11.179976,11.179976 0 0 0 -5.063255,8.770524 H 12.43811 23.617791 a 11.179976,11.179976 0 0 0 -5.118034,-8.865092 z" />
    </g>
  </g>
  <g
     inkscape:groupmode="layer"
     id="layer4"
     inkscape:label="monster_book"
     style="opacity:1">
    <g
       id="g882"
       transform="translate(0,0.20480567)">
      <path
         style="fill:#b9bbbe;fill-opacity:1;stroke:#b9bbbe;stroke-width:0.264583px;stroke-linecap:butt;stroke-linejoin:miter;stroke-opacity:1"
         d="m 20.835903,20.437649 1.93696,-1.466297 -14.6629722,-0.506869 c 0,0 -3.3308481,1.176659 -1.8826533,3.837717 l 15.4594795,0.524971 c 0,0 -0.362049,-1.212864 0.108615,-1.936961 z"
         id="path864" />
      <path
         id="path866"
         style="opacity:0.83;fill:#b9bbbe;fill-opacity:1;stroke:#b9bbbe;stroke-width:0.999999px;stroke-linecap:butt;stroke-linejoin:miter;stroke-opacity:1"
         d="M 15.578125,4.546875 C 3.9670958,6.5788053 3.1933594,20.029297 3.1933594,20.029297 L 18.384766,79.921875 C 20.610213,67.2465 31.058594,66.085938 31.058594,66.085938 L 91.533203,68.3125 68.117188,7.3535156 Z m 3.724609,7.113281 13.740235,47.121094 -3.095703,1.015625 -13.740235,-47.21875 z m 10.208985,3.72461 c 4.983067,6.676342 10.884765,7.498046 10.884765,7.498046 l -2.371093,1.404297 8.273437,3.966797 -1.83789,3.046875 C 29.608495,29.655886 29.511719,15.384766 29.511719,15.384766 Z m 33.365234,0.693359 c 4.036698,15.325778 -7.337891,16.384766 -7.337891,16.384766 l -2.564453,-2.757813 4.427735,-2.816406 -1.640625,-2.59961 c 3.48935,-0.889441 7.115234,-8.210937 7.115234,-8.210937 z m 8.347656,16.283203 -1.574218,22.167969 -3.490235,-4.925781 -3.55664,8.96289 -7.664063,-8.347656 -3.830078,8.484375 -8.210937,-11.083984 -2.804688,4.037109 -8.279297,-17.789062 13.957031,10.537109 1.710938,-6.294922 9.373047,6.568359 4.720703,-8.552734 3.353516,6.705078 z"
         transform="scale(0.26458333)" />
    </g>
  </g>
  <g
     inkscape:groupmode="layer"
     id="layer3"
     inkscape:label="encounter"
     style="display:none">
    <g
       id="g1129"
       transform="matrix(1.0748853,0,0,1.0748853,-86.090409,-34.224295)">
      <circle
         style="fill:#b9bbbe;fill-opacity:1;stroke:#b9bbbe;stroke-width:0.359989;stroke-opacity:1"
         id="path1046"
         cx="82.513657"
         cy="52.101368"
         r="1.6508259" />
      <path
         style="fill:#b9bbbe;fill-opacity:1;stroke:none;stroke-width:0.264583px;stroke-linecap:butt;stroke-linejoin:miter;stroke-opacity:1"
         d="m 82.513661,52.101366 0.0486,-1.792946 2.839005,-2.808674 -2.390103,-2.426499 1.006997,-1.006999 3.73681,2.839006 2.766211,3.676147 -0.946335,0.994865 -2.426502,-2.426499 -2.845069,2.911801 -1.789613,0.0398"
         id="path1048" />
      <path
         id="path1050"
         style="fill:#b9bbbe;fill-opacity:1;stroke:none;stroke-width:0.999999px;stroke-linecap:butt;stroke-linejoin:miter;stroke-opacity:1"
         d="m 383.38672,125.45898 -18.96484,7.19336 -16.76172,17.73243 10.34765,10.94531 17.92578,-17.00391 z m -48.91211,38.87305 -6.5293,6.90625 5.41407,4.08594 4.08593,5.51172 7.21289,-6.84375 z"
         transform="scale(0.26458333)" />
      <circle
         style="fill:#b9bbbe;fill-opacity:1;stroke:#b9bbbe;stroke-width:0.359989;stroke-opacity:1"
         id="circle1110"
         cx="-100.67535"
         cy="52.101368"
         r="1.6508259"
         transform="scale(-1,1)" />
      <path
         style="fill:#b9bbbe;fill-opacity:1;stroke:none;stroke-width:0.264583px;stroke-linecap:butt;stroke-linejoin:miter;stroke-opacity:1"
         d="m 100.67535,52.101366 -0.0486,-1.792946 -2.839001,-2.808674 2.390101,-2.426499 -1.006995,-1.006999 -3.73681,2.839006 -2.766211,3.676147 0.946335,0.994865 2.426502,-2.426499 2.845069,2.911801 1.78961,0.0398"
         id="path1112" />
      <path
         style="fill:#b9bbbe;fill-opacity:1;stroke:none;stroke-width:0.264583px;stroke-linecap:butt;stroke-linejoin:miter;stroke-opacity:1"
         d="m 96.420179,45.306819 -1.432687,1.08095 -1.080952,1.458425 -10.183241,-9.659924 -1.972024,-4.991819 5.017561,1.903388 z"
         id="path1114" />
    </g>
  </g>
  <g
     inkscape:groupmode="layer"
     id="layer2"
     inkscape:label="monster"
     style="display:none">
    <g
       id="g878"
       transform="translate(-24.824213,-31.005342)">
      <g
         id="g897"
         transform="matrix(1,0,0,0.81658267,-30.035873,13.167336)">
        <path
           style="fill:#b9bbbe;fill-opacity:1;stroke:#b9bbbe;stroke-width:0.264583px;stroke-linecap:butt;stroke-linejoin:miter;stroke-opacity:1"
           d="m 63.087747,27.930329 c -3.120452,-0.927902 -4.416276,-3.803905 -4.416276,-3.803905 -0.523119,3.738954 1.624434,8.090923 1.624434,8.090923 z"
           id="path861" />
        <path
           style="fill:#b9bbbe;fill-opacity:1;stroke:#b9bbbe;stroke-width:0.264583px;stroke-linecap:butt;stroke-linejoin:miter;stroke-opacity:1"
           d="m 71.506698,27.864955 c 3.120452,-0.927902 4.416276,-3.803905 4.416276,-3.803905 0.523119,3.738954 -1.624434,8.090923 -1.624434,8.090923 z"
           id="path861-8" />
      </g>
      <path
         id="path859"
         style="fill:#b9bbbe;fill-opacity:1;stroke:#000000;stroke-width:0.497435;stroke-opacity:0"
         d="m 43.323971,46.052485 a 8.6236238,8.6236238 0 0 1 -6.136576,2.565218 8.6236238,8.6236238 0 0 1 -6.04201,-2.47065 11.179976,11.179976 0 0 0 -5.063256,8.770525 h 11.180196 11.17968 a 11.179976,11.179976 0 0 0 -5.118034,-8.865093 z" />
      <path
         id="path992"
         style="fill:#b9bbbe;fill-opacity:1;stroke:#000000;stroke-width:0.332999;stroke-opacity:0"
         d="m 37.146036,32.509667 a 7.484251,7.484251 0 0 0 -7.442958,7.484298 7.484251,7.484251 0 0 0 5.346963,7.172172 l -1.480532,-5.97121 -1.68982,-1.646928 v -1.646928 h 3.379639 l 1.928049,2.092894 1.927532,-2.092894 h 3.380155 v 1.646928 l -1.689819,1.646928 -1.481048,5.971728 a 7.484251,7.484251 0 0 0 5.347478,-7.17269 7.484251,7.484251 0 0 0 -7.484298,-7.484298 7.484251,7.484251 0 0 0 -0.04134,0 z" />
    </g>
  </g>
</svg>
