<?xml version="1.0" encoding="UTF-8" standalone="no"?>
<svg
   xmlns:dc="http://purl.org/dc/elements/1.1/"
   xmlns:cc="http://creativecommons.org/ns#"
   xmlns:rdf="http://www.w3.org/1999/02/22-rdf-syntax-ns#"
   xmlns:svg="http://www.w3.org/2000/svg"
   xmlns="http://www.w3.org/2000/svg"
   xmlns:sodipodi="http://sodipodi.sourceforge.net/DTD/sodipodi-0.dtd"
   xmlns:inkscape="http://www.inkscape.org/namespaces/inkscape"
   width="25mm"
   height="25mm"
   viewBox="0 0 25 25"
   version="1.1"
   id="svg8"
   sodipodi:docname="player.svg"
   inkscape:version="1.0.1 (3bc2e813f5, 2020-09-07)">
  <defs
     id="defs2">
    <rect
       x="78.618599"
       y="25.866491"
       width="31.398911"
       height="29.651831"
       id="rect1005" />
  </defs>
  <sodipodi:namedview
     id="base"
     pagecolor="#ffffff"
     bordercolor="#666666"
     borderopacity="1.0"
     inkscape:pageopacity="0.0"
     inkscape:pageshadow="2"
     inkscape:zoom="3.6539744"
     inkscape:cx="63.373863"
     inkscape:cy="79.950277"
     inkscape:document-units="mm"
     inkscape:current-layer="layer1"
     inkscape:document-rotation="0"
     showgrid="false"
     inkscape:object-paths="false"
     inkscape:snap-midpoints="true"
     inkscape:object-nodes="true"
     inkscape:snap-object-midpoints="true"
     inkscape:window-width="1920"
     inkscape:window-height="1017"
     inkscape:window-x="-8"
     inkscape:window-y="-8"
     inkscape:window-maximized="1" />
  <metadata
     id="metadata5">
    <rdf:RDF>
      <cc:Work
         rdf:about="">
        <dc:format>image/svg+xml</dc:format>
        <dc:type
           rdf:resource="http://purl.org/dc/dcmitype/StillImage" />
        <dc:title />
      </cc:Work>
    </rdf:RDF>
  </metadata>
  <g
     inkscape:label="Layer 1"
     inkscape:groupmode="layer"
     id="layer1"
     style="display:inline">
    <g
       id="g916">
      <path
         id="path835"
         style="fill:#b9bbbe;fill-opacity:1;stroke:#000000;stroke-width:0.332999;stroke-opacity:0"
         d="M 12.321839,1.5043 A 7.4842509,7.4842509 0 0 0 4.8788828,8.9885978 7.4842509,7.4842509 0 0 0 10.225845,16.160769 L 8.7453131,10.18956 7.0554935,8.542632 V 6.895704 h 3.3796395 l 1.928048,2.0928938 1.927531,-2.0928938 h 3.380156 v 1.646928 l -1.68982,1.646928 -1.481047,5.971728 A 7.4842509,7.4842509 0 0 0 19.847478,8.9885978 7.4842509,7.4842509 0 0 0 12.363181,1.5043 a 7.4842509,7.4842509 0 0 0 -0.04134,0 z" />
      <path
         id="path835-9"
         style="fill:#b9bbbe;fill-opacity:1;stroke:#000000;stroke-width:0.497435;stroke-opacity:0"
         d="m 18.499757,15.047143 a 8.6236237,8.6236237 0 0 1 -6.136577,2.565218 8.6236237,8.6236237 0 0 1 -6.0420088,-2.47065 11.179976,11.179976 0 0 0 -5.063255,8.770524 H 12.43811 23.617791 a 11.179976,11.179976 0 0 0 -5.118034,-8.865092 z" />
    </g>
  </g>
</svg>
