<?xml version="1.0" encoding="UTF-8" standalone="no"?>
<svg
   xmlns:dc="http://purl.org/dc/elements/1.1/"
   xmlns:cc="http://creativecommons.org/ns#"
   xmlns:rdf="http://www.w3.org/1999/02/22-rdf-syntax-ns#"
   xmlns:svg="http://www.w3.org/2000/svg"
   xmlns="http://www.w3.org/2000/svg"
   xmlns:sodipodi="http://sodipodi.sourceforge.net/DTD/sodipodi-0.dtd"
   xmlns:inkscape="http://www.inkscape.org/namespaces/inkscape"
   width="25mm"
   height="25mm"
   viewBox="0 0 25 25"
   version="1.1"
   id="svg8"
   sodipodi:docname="plus.svg"
   inkscape:version="1.0.1 (3bc2e813f5, 2020-09-07)">
  <defs
     id="defs2">
    <rect
       x="4.5376706"
       y="3.4572728"
       width="28.246506"
       height="26.868864"
       id="rect884" />
    <rect
       x="78.618599"
       y="25.866491"
       width="31.398911"
       height="29.651831"
       id="rect1005" />
  </defs>
  <sodipodi:namedview
     id="base"
     pagecolor="#ffffff"
     bordercolor="#666666"
     borderopacity="1.0"
     inkscape:pageopacity="0.0"
     inkscape:pageshadow="2"
     inkscape:zoom="5.3617098"
     inkscape:cx="45.649632"
     inkscape:cy="34.130969"
     inkscape:document-units="mm"
     inkscape:current-layer="layer9"
     inkscape:document-rotation="0"
     showgrid="false"
     inkscape:object-paths="false"
     inkscape:snap-midpoints="false"
     inkscape:object-nodes="false"
     inkscape:snap-object-midpoints="true"
     inkscape:window-width="1920"
     inkscape:window-height="1017"
     inkscape:window-x="-8"
     inkscape:window-y="-8"
     inkscape:window-maximized="1"
     inkscape:snap-global="false" />
  <metadata
     id="metadata5">
    <rdf:RDF>
      <cc:Work
         rdf:about="">
        <dc:format>image/svg+xml</dc:format>
        <dc:type
           rdf:resource="http://purl.org/dc/dcmitype/StillImage" />
        <dc:title />
      </cc:Work>
    </rdf:RDF>
  </metadata>
  <g
     inkscape:groupmode="layer"
     id="layer9"
     inkscape:label="plus">
    <path
       id="path887"
       style="opacity:1;fill:#b9bbbe;fill-opacity:1;stroke:none;stroke-width:1.02275;stroke-opacity:1"
       d="M 12.481022,0.44066032 A 12.02567,12.02567 0 0 0 0.45510607,12.466576 12.02567,12.02567 0 0 0 12.481022,24.492491 12.02567,12.02567 0 0 0 24.506937,12.466576 12.02567,12.02567 0 0 0 12.481022,0.44066032 Z M 11.374771,6.2687129 h 2.212504 c 0.245675,0 0.442816,0.1987467 0.442816,0.444405 v 4.2043891 h 4.204389 c 0.245646,0 0.444406,0.19715 0.444406,0.442818 v 2.212504 c 0,0.245675 -0.198747,0.442816 -0.444406,0.442816 h -4.204389 v 4.204389 c 0,0.245677 -0.197149,0.444406 -0.442816,0.444406 h -2.212504 c -0.245646,0 -0.442818,-0.198747 -0.442818,-0.444406 V 14.015645 H 6.7275637 c -0.2456768,0 -0.444405,-0.197149 -0.444405,-0.442816 v -2.212504 c 0,-0.245677 0.1987467,-0.442818 0.444405,-0.442818 H 10.931953 V 6.7131179 c 0,-0.245646 0.19715,-0.444405 0.442818,-0.444405 z" />
  </g>
</svg>
