<?xml version="1.0" encoding="UTF-8" standalone="no"?>
<svg
   xmlns:dc="http://purl.org/dc/elements/1.1/"
   xmlns:cc="http://creativecommons.org/ns#"
   xmlns:rdf="http://www.w3.org/1999/02/22-rdf-syntax-ns#"
   xmlns:svg="http://www.w3.org/2000/svg"
   xmlns="http://www.w3.org/2000/svg"
   xmlns:sodipodi="http://sodipodi.sourceforge.net/DTD/sodipodi-0.dtd"
   xmlns:inkscape="http://www.inkscape.org/namespaces/inkscape"
   width="25mm"
   height="25mm"
   viewBox="0 0 25 25"
   version="1.1"
   id="svg8"
   sodipodi:docname="setting.svg"
   inkscape:version="1.0.1 (3bc2e813f5, 2020-09-07)">
  <defs
     id="defs2">
    <rect
       x="78.618599"
       y="25.866491"
       width="31.398911"
       height="29.651831"
       id="rect1005" />
  </defs>
  <sodipodi:namedview
     id="base"
     pagecolor="#ffffff"
     bordercolor="#666666"
     borderopacity="1.0"
     inkscape:pageopacity="0.0"
     inkscape:pageshadow="2"
     inkscape:zoom="4.8978875"
     inkscape:cx="43.956866"
     inkscape:cy="31.147768"
     inkscape:document-units="mm"
     inkscape:current-layer="layer6"
     inkscape:document-rotation="0"
     showgrid="false"
     inkscape:object-paths="false"
     inkscape:snap-midpoints="true"
     inkscape:object-nodes="true"
     inkscape:snap-object-midpoints="true"
     inkscape:window-width="1920"
     inkscape:window-height="1017"
     inkscape:window-x="-8"
     inkscape:window-y="-8"
     inkscape:window-maximized="1" />
  <metadata
     id="metadata5">
    <rdf:RDF>
      <cc:Work
         rdf:about="">
        <dc:format>image/svg+xml</dc:format>
        <dc:type
           rdf:resource="http://purl.org/dc/dcmitype/StillImage" />
        <dc:title />
      </cc:Work>
    </rdf:RDF>
  </metadata>
  <g
     inkscape:groupmode="layer"
     id="layer6"
     inkscape:label="settings">
    <path
       id="path1024"
       style="fill:#b9bbbe;fill-opacity:1;stroke:#b9bbbe;stroke-width:0.37173px;stroke-linecap:butt;stroke-linejoin:miter;stroke-opacity:1"
       d="M 8.773496,1.0978596 9.0825624,4.7507349 A 8.3401699,8.3401699 0 0 0 6.4452981,6.7742746 L 2.9964846,5.5306294 2.0518562,7.1667738 4.8532916,9.5317113 A 8.3401699,8.3401699 0 0 0 4.4189733,12.828309 l -3.317315,1.558589 0.4889469,1.824774 3.652174,-0.308878 a 8.3401699,8.3401699 0 0 0 2.0244292,2.637777 l -1.2438334,3.448113 1.6361443,0.944628 2.3649377,-2.801434 a 8.3401699,8.3401699 0 0 0 3.295896,0.434506 l 1.558589,3.317312 1.824774,-0.488946 -0.308177,-3.65236 a 8.3401699,8.3401699 0 0 0 2.637779,-2.024429 l 3.448113,1.243832 0.944627,-1.636144 -2.801434,-2.364937 a 8.3401699,8.3401699 0 0 0 0.433804,-3.295708 L 24.376443,10.106226 23.887496,8.281451 20.234622,8.5905181 A 8.3401699,8.3401699 0 0 0 18.210894,5.9525525 L 19.454539,2.5037389 17.818395,1.5591104 15.453457,4.3605457 A 8.3401699,8.3401699 0 0 0 12.157749,3.9267411 l -1.55948,-3.31782813 z m 2.769145,6.6850415 a 4.6210264,4.6210264 0 0 1 5.659814,3.2676949 4.6210264,4.6210264 0 0 1 -3.267883,5.659115 4.6210264,4.6210264 0 0 1 -5.6589254,-3.267183 4.6210264,4.6210264 0 0 1 3.2669944,-5.6596269 z" />
  </g>
</svg>
