<?xml version="1.0" encoding="UTF-8" standalone="no"?>
<svg
   xmlns:dc="http://purl.org/dc/elements/1.1/"
   xmlns:cc="http://creativecommons.org/ns#"
   xmlns:rdf="http://www.w3.org/1999/02/22-rdf-syntax-ns#"
   xmlns:svg="http://www.w3.org/2000/svg"
   xmlns="http://www.w3.org/2000/svg"
   xmlns:sodipodi="http://sodipodi.sourceforge.net/DTD/sodipodi-0.dtd"
   xmlns:inkscape="http://www.inkscape.org/namespaces/inkscape"
   width="25mm"
   height="25mm"
   viewBox="0 0 25 25"
   version="1.1"
   id="svg8"
   sodipodi:docname="warn.svg"
   inkscape:version="1.0.1 (3bc2e813f5, 2020-09-07)">
  <defs
     id="defs2">
    <rect
       x="4.5376706"
       y="3.4572728"
       width="28.246506"
       height="26.868864"
       id="rect884" />
    <rect
       x="78.618599"
       y="25.866491"
       width="31.398911"
       height="29.651831"
       id="rect1005" />
  </defs>
  <sodipodi:namedview
     id="base"
     pagecolor="#ffffff"
     bordercolor="#666666"
     borderopacity="1.0"
     inkscape:pageopacity="0.0"
     inkscape:pageshadow="2"
     inkscape:zoom="6.9969823"
     inkscape:cx="58.087271"
     inkscape:cy="54.046943"
     inkscape:document-units="mm"
     inkscape:current-layer="g906"
     inkscape:document-rotation="0"
     showgrid="false"
     inkscape:object-paths="false"
     inkscape:snap-midpoints="false"
     inkscape:object-nodes="true"
     inkscape:snap-object-midpoints="true"
     inkscape:window-width="1920"
     inkscape:window-height="1017"
     inkscape:window-x="-8"
     inkscape:window-y="-8"
     inkscape:window-maximized="1"
     inkscape:snap-global="true"
     inkscape:snap-intersection-paths="true"
     inkscape:snap-smooth-nodes="true" />
  <metadata
     id="metadata5">
    <rdf:RDF>
      <cc:Work
         rdf:about="">
        <dc:format>image/svg+xml</dc:format>
        <dc:type
           rdf:resource="http://purl.org/dc/dcmitype/StillImage" />
        <dc:title />
      </cc:Work>
    </rdf:RDF>
  </metadata>
  <g
     inkscape:groupmode="layer"
     id="g906"
     inkscape:label="warn"
     style="display:inline">
    <path
       id="path910"
       style="opacity:1;fill:#b9bbbe;stroke:#000000;stroke-width:1.63168;stroke-opacity:0;fill-opacity:1"
       d="M 47.173828 1.6660156 A 45.452144 45.452144 0 0 0 1.7207031 47.119141 A 45.452144 45.452144 0 0 0 47.173828 92.570312 A 45.452144 45.452144 0 0 0 92.625 47.119141 A 45.452144 45.452144 0 0 0 47.173828 1.6660156 z M 43.042969 17.742188 L 51.302734 17.742188 C 52.326695 17.742188 53.150391 18.565882 53.150391 19.589844 L 53.150391 62.9375 C 53.150391 63.961465 52.326695 64.785156 51.302734 64.785156 L 43.042969 64.785156 C 42.019004 64.785156 41.195313 63.961465 41.195312 62.9375 L 41.195312 19.589844 C 41.195312 18.565882 42.019004 17.742187 43.042969 17.742188 z M 47.132812 68.535156 A 5.8544916 5.8544916 0 0 1 47.173828 68.535156 A 5.8544916 5.8544916 0 0 1 53.027344 74.390625 A 5.8544916 5.8544916 0 0 1 47.173828 80.244141 A 5.8544916 5.8544916 0 0 1 41.318359 74.390625 A 5.8544916 5.8544916 0 0 1 47.132812 68.535156 z "
       transform="scale(0.26458333)" />
  </g>
</svg>
