<?xml version="1.0" encoding="UTF-8" standalone="no"?>
<svg
   xmlns:dc="http://purl.org/dc/elements/1.1/"
   xmlns:cc="http://creativecommons.org/ns#"
   xmlns:rdf="http://www.w3.org/1999/02/22-rdf-syntax-ns#"
   xmlns:svg="http://www.w3.org/2000/svg"
   xmlns="http://www.w3.org/2000/svg"
   xmlns:sodipodi="http://sodipodi.sourceforge.net/DTD/sodipodi-0.dtd"
   xmlns:inkscape="http://www.inkscape.org/namespaces/inkscape"
   width="25mm"
   height="25mm"
   viewBox="0 0 25 25"
   version="1.1"
   id="svg8"
   sodipodi:docname="notes.svg"
   inkscape:version="1.0.1 (3bc2e813f5, 2020-09-07)">
  <defs
     id="defs2">
    <rect
       x="78.618599"
       y="25.866491"
       width="31.398911"
       height="29.651831"
       id="rect1005" />
  </defs>
  <sodipodi:namedview
     id="base"
     pagecolor="#ffffff"
     bordercolor="#666666"
     borderopacity="1.0"
     inkscape:pageopacity="0.0"
     inkscape:pageshadow="2"
     inkscape:zoom="3.3717702"
     inkscape:cx="14.689802"
     inkscape:cy="47.017449"
     inkscape:document-units="mm"
     inkscape:current-layer="layer7"
     inkscape:document-rotation="0"
     showgrid="false"
     inkscape:object-paths="false"
     inkscape:snap-midpoints="true"
     inkscape:object-nodes="true"
     inkscape:snap-object-midpoints="true"
     inkscape:window-width="1920"
     inkscape:window-height="1017"
     inkscape:window-x="-8"
     inkscape:window-y="-8"
     inkscape:window-maximized="1"
     inkscape:snap-nodes="false" />
  <metadata
     id="metadata5">
    <rdf:RDF>
      <cc:Work
         rdf:about="">
        <dc:format>image/svg+xml</dc:format>
        <dc:type
           rdf:resource="http://purl.org/dc/dcmitype/StillImage" />
        <dc:title />
      </cc:Work>
    </rdf:RDF>
  </metadata>
  <g
     inkscape:groupmode="layer"
     id="layer7"
     inkscape:label="message">
    <path
       id="rect879"
       style="opacity:1;fill:#b9bbbe;fill-opacity:1;stroke:#b9bbbe;stroke-width:1.00157;stroke-linecap:round;stroke-opacity:1"
       d="M 12.46875 8.0234375 C 9.5112542 8.0234375 7.1308594 10.403833 7.1308594 13.361328 L 7.1308594 82.300781 C 7.1308594 85.258277 9.5112542 87.638672 12.46875 87.638672 L 81.410156 87.638672 C 84.367652 87.638672 86.748047 85.258277 86.748047 82.300781 L 86.748047 13.361328 C 86.748047 10.403833 84.367652 8.0234375 81.410156 8.0234375 L 12.46875 8.0234375 z M 16.896484 22.265625 L 26.833984 22.265625 C 28.935643 22.265625 30.626953 23.958888 30.626953 26.060547 C 30.626953 28.162206 28.935643 29.853516 26.833984 29.853516 L 16.896484 29.853516 C 14.794826 29.853516 13.103516 28.162206 13.103516 26.060547 C 13.103516 23.958888 14.794826 22.265625 16.896484 22.265625 z M 38.324219 22.265625 L 70.574219 22.265625 C 72.675878 22.265625 74.367188 23.958888 74.367188 26.060547 C 74.367188 28.162206 72.675878 29.853516 70.574219 29.853516 L 38.324219 29.853516 C 36.222561 29.853516 34.53125 28.162206 34.53125 26.060547 C 34.53125 23.958888 36.222561 22.265625 38.324219 22.265625 z M 27.5 44.435547 L 78.109375 44.435547 C 80.211034 44.435547 81.902344 46.126856 81.902344 48.228516 C 81.902344 50.330175 80.211034 52.023437 78.109375 52.023438 L 27.5 52.023438 C 25.398341 52.023438 23.705078 50.330175 23.705078 48.228516 C 23.705078 46.126856 25.398341 44.435547 27.5 44.435547 z M 20.677734 66.605469 L 55.839844 66.605469 C 57.941503 66.605469 59.632813 68.296778 59.632812 70.398438 C 59.632812 72.500096 57.941503 74.191406 55.839844 74.191406 L 20.677734 74.191406 C 18.576076 74.191406 16.884766 72.500096 16.884766 70.398438 C 16.884766 68.296778 18.576076 66.605469 20.677734 66.605469 z M 67.509766 66.605469 L 68.097656 66.605469 C 70.199315 66.605469 71.890625 68.296778 71.890625 70.398438 C 71.890625 72.500097 70.199315 74.191406 68.097656 74.191406 L 67.509766 74.191406 C 65.408106 74.191406 63.714844 72.500097 63.714844 70.398438 C 63.714844 68.296778 65.408106 66.605469 67.509766 66.605469 z "
       transform="scale(0.26458333)" />
  </g>
</svg>
