<?xml version="1.0" encoding="UTF-8" standalone="no"?>
<svg
   xmlns:dc="http://purl.org/dc/elements/1.1/"
   xmlns:cc="http://creativecommons.org/ns#"
   xmlns:rdf="http://www.w3.org/1999/02/22-rdf-syntax-ns#"
   xmlns:svg="http://www.w3.org/2000/svg"
   xmlns="http://www.w3.org/2000/svg"
   xmlns:sodipodi="http://sodipodi.sourceforge.net/DTD/sodipodi-0.dtd"
   xmlns:inkscape="http://www.inkscape.org/namespaces/inkscape"
   width="25mm"
   height="25mm"
   viewBox="0 0 25 25"
   version="1.1"
   id="svg8"
   sodipodi:docname="notes.svg"
   inkscape:version="1.0.1 (3bc2e813f5, 2020-09-07)">
  <defs
     id="defs2">
    <rect
       x="78.618599"
       y="25.866491"
       width="31.398911"
       height="29.651831"
       id="rect1005" />
  </defs>
  <sodipodi:namedview
     id="base"
     pagecolor="#ffffff"
     bordercolor="#666666"
     borderopacity="1.0"
     inkscape:pageopacity="0.0"
     inkscape:pageshadow="2"
     inkscape:zoom="6.7435404"
     inkscape:cx="57.249183"
     inkscape:cy="51.454571"
     inkscape:document-units="mm"
     inkscape:current-layer="layer7"
     inkscape:document-rotation="0"
     showgrid="false"
     inkscape:object-paths="false"
     inkscape:snap-midpoints="true"
     inkscape:object-nodes="true"
     inkscape:snap-object-midpoints="true"
     inkscape:window-width="1920"
     inkscape:window-height="1017"
     inkscape:window-x="-8"
     inkscape:window-y="-8"
     inkscape:window-maximized="1" />
  <metadata
     id="metadata5">
    <rdf:RDF>
      <cc:Work
         rdf:about="">
        <dc:format>image/svg+xml</dc:format>
        <dc:type
           rdf:resource="http://purl.org/dc/dcmitype/StillImage" />
        <dc:title />
      </cc:Work>
    </rdf:RDF>
  </metadata>
  <g
     inkscape:groupmode="layer"
     id="layer7"
     inkscape:label="message">
    <path
       id="path1049"
       style="fill:#b9bbbe;fill-opacity:1;stroke:#b9bbbe;stroke-width:0.353146px;stroke-linecap:butt;stroke-linejoin:miter;stroke-opacity:1"
       d="m 3.5652207,2.5157883 c -1.0119386,-3e-7 -1.852714,0.7002373 -2.0706931,1.6440711 -1.417e-4,6.125e-4 1.41e-4,0.00132 0,0.00193 -0.01668,0.072515 -0.030151,0.1461669 -0.039252,0.2213544 -7.686e-4,0.00606 -0.00186,0.011945 -0.00257,0.018017 -0.00893,0.079491 -0.0148,0.1599909 -0.0148,0.2419455 V 20.667492 c 0,0.08195 0.00587,0.162454 0.0148,0.241945 7.179e-4,0.0061 0.00181,0.01196 0.00257,0.01802 0.0091,0.07519 0.022572,0.14884 0.039252,0.221355 1.41e-4,6.12e-4 -1.413e-4,0.0013 0,0.0019 0.2179791,0.943834 1.0587545,1.644071 2.0706931,1.644071 H 21.273573 c 1.011939,0 1.852714,-0.700237 2.070693,-1.644071 1.41e-4,-6.1e-4 -1.4e-4,-0.0013 0,-0.0019 0.01668,-0.07252 0.03015,-0.146167 0.03925,-0.221355 7.33e-4,-0.0061 0.0019,-0.01194 0.0026,-0.01802 0.0089,-0.07949 0.0148,-0.159991 0.0148,-0.241945 V 4.643107 c 0,-0.081955 -0.0059,-0.162455 -0.0148,-0.2419455 -6.83e-4,-0.00607 -0.0018,-0.011961 -0.0026,-0.018017 -0.0091,-0.075188 -0.02257,-0.1488394 -0.03925,-0.2213544 -1.4e-4,-6.105e-4 1.41e-4,-0.00132 0,-0.00193 C 23.126287,3.2160256 22.285512,2.5157883 21.273573,2.5157883 Z m 0.2586757,5.0995162 h 2.5166194 c 0.6590545,0 1.1897799,0.5307247 1.1897799,1.1897798 0,0.6590535 -0.5307254,1.1897799 -1.1897799,1.1897799 H 3.8238964 c -0.6590547,0 -1.1891364,-0.5307264 -1.1891364,-1.1897799 0,-0.6590551 0.5300817,-1.1897798 1.1891364,-1.1897798 z m 5.6220157,0.00837 h 8.4352759 c 0.674145,0 1.216806,0.54266 1.216806,1.2168056 0,0.674145 -0.542661,1.2168059 -1.216806,1.2168059 H 9.4459121 c -0.6741456,0 -1.2168056,-0.5426609 -1.2168056,-1.2168059 0,-0.6741456 0.54266,-1.2168056 1.2168056,-1.2168056 z M 7.4878266,11.422086 H 20.772952 c 0.635634,0 1.146667,0.511677 1.146667,1.14731 0,0.635633 -0.511033,1.147311 -1.146667,1.147311 H 7.4878266 c -0.6356323,0 -1.1479542,-0.511678 -1.1479542,-1.147311 0,-0.635633 0.5123219,-1.14731 1.1479542,-1.14731 z m 9.5671434,3.738572 h 0.114538 c 0.649676,0 1.172406,0.523372 1.172406,1.17305 0,0.649676 -0.52273,1.172406 -1.172406,1.172406 H 17.05497 c -0.649677,0 -1.172406,-0.52273 -1.172406,-1.172406 0,-0.649678 0.522729,-1.17305 1.172406,-1.17305 z m -12.4254463,0.0026 h 9.2589203 c 0.648458,0 1.170475,0.522017 1.170475,1.170476 0,0.648459 -0.522017,1.170476 -1.170475,1.170476 H 4.6295237 c -0.6484588,0 -1.1704757,-0.522017 -1.1704757,-1.170476 0,-0.648459 0.5220169,-1.170476 1.1704757,-1.170476 z" />
  </g>
</svg>
