<?xml version="1.0" encoding="UTF-8" standalone="no"?>
<svg
   xmlns:dc="http://purl.org/dc/elements/1.1/"
   xmlns:cc="http://creativecommons.org/ns#"
   xmlns:rdf="http://www.w3.org/1999/02/22-rdf-syntax-ns#"
   xmlns:svg="http://www.w3.org/2000/svg"
   xmlns="http://www.w3.org/2000/svg"
   xmlns:sodipodi="http://sodipodi.sourceforge.net/DTD/sodipodi-0.dtd"
   xmlns:inkscape="http://www.inkscape.org/namespaces/inkscape"
   width="25mm"
   height="25mm"
   viewBox="0 0 25 25"
   version="1.1"
   id="svg8"
   sodipodi:docname="players.svg"
   inkscape:version="1.0.1 (3bc2e813f5, 2020-09-07)">
  <defs
     id="defs2">
    <rect
       x="78.618599"
       y="25.866491"
       width="31.398911"
       height="29.651831"
       id="rect1005" />
  </defs>
  <sodipodi:namedview
     id="base"
     pagecolor="#ffffff"
     bordercolor="#666666"
     borderopacity="1.0"
     inkscape:pageopacity="0.0"
     inkscape:pageshadow="2"
     inkscape:zoom="3.5573751"
     inkscape:cx="-4.8688839"
     inkscape:cy="49.644085"
     inkscape:document-units="mm"
     inkscape:current-layer="g890"
     inkscape:document-rotation="0"
     showgrid="false"
     inkscape:object-paths="false"
     inkscape:snap-midpoints="true"
     inkscape:object-nodes="true"
     inkscape:snap-object-midpoints="true"
     inkscape:window-width="1920"
     inkscape:window-height="1017"
     inkscape:window-x="-8"
     inkscape:window-y="-8"
     inkscape:window-maximized="1" />
  <metadata
     id="metadata5">
    <rdf:RDF>
      <cc:Work
         rdf:about="">
        <dc:format>image/svg+xml</dc:format>
        <dc:type
           rdf:resource="http://purl.org/dc/dcmitype/StillImage" />
        <dc:title />
      </cc:Work>
    </rdf:RDF>
  </metadata>
  <g
     inkscape:label="players"
     inkscape:groupmode="layer"
     id="g890"
     style="display:inline">
    <g
       id="g924"
       transform="matrix(0.96867553,0,0,0.96867553,-0.20477457,-0.69398666)">
      <path
         id="path884"
         style="fill:#b9bbbe;fill-opacity:1;stroke:#000000;stroke-width:0.28661;stroke-opacity:0"
         d="m 10.14609,3.9965209 a 6.4416429,6.4416429 0 0 0 -6.4061006,6.4416831 6.4416429,6.4416429 0 0 0 4.6020933,6.173038 l -1.2742835,-5.139378 -1.454416,-1.4175 V 8.6368649 h 2.9088323 l 1.6594575,1.8013391 1.659013,-1.8013391 h 2.909276 v 1.4174991 l -1.454416,1.4175 -1.274727,5.139825 a 6.4416429,6.4416429 0 0 0 4.602537,-6.173485 6.4416429,6.4416429 0 0 0 -6.441683,-6.4416831 6.4416429,6.4416429 0 0 0 -0.03558,0 z" />
      <path
         id="path886"
         style="fill:#b9bbbe;fill-opacity:1;stroke:#000000;stroke-width:0.428139;stroke-opacity:0"
         d="M 15.463381,15.652752 A 7.4222932,7.4222932 0 0 1 10.181672,17.860617 7.4222932,7.4222932 0 0 1 4.9813571,15.734146 9.6225279,9.6225279 0 0 0 0.62344858,23.282875 H 10.246164 19.868438 A 9.6225279,9.6225279 0 0 0 15.463381,15.652752 Z" />
      <path
         id="path894"
         style="fill:#b9bbbe;fill-opacity:1;stroke:#000000;stroke-width:0.190687;stroke-opacity:0"
         d="m 19.207363,8.0606779 a 4.2857528,4.2857528 0 0 0 -2.520777,0.8366416 6.4416429,6.4416429 0 0 1 0.24443,1.7580325 6.4416429,6.4416429 0 0 1 -0.0186,0.492476 h 1.214396 l 1.104326,1.198894 1.103808,-1.198894 h 1.935283 v 0.943095 l -0.967383,0.943095 -0.84801,3.419946 a 4.2857528,4.2857528 0 0 0 3.061828,-4.107242 4.2857528,4.2857528 0 0 0 -4.285526,-4.2860441 4.2857528,4.2857528 0 0 0 -0.02377,0 z m -2.557467,4.4767301 a 6.4416429,6.4416429 0 0 1 -1.066085,2.059822 4.2857528,4.2857528 0 0 0 2.423108,1.856217 l -0.847493,-3.419429 z" />
      <path
         id="path896"
         style="fill:#b9bbbe;fill-opacity:1;stroke:#000000;stroke-width:0.284849;stroke-opacity:0"
         d="m 22.74502,15.815827 a 4.9381988,4.9381988 0 0 1 -3.514026,1.468937 4.9381988,4.9381988 0 0 1 -3.459872,-1.414783 6.4020586,6.4020586 0 0 0 -2.899403,5.022319 h 6.402183 6.40189 A 6.4020586,6.4020586 0 0 0 22.74502,15.815827 Z" />
    </g>
  </g>
</svg>
